<svg width="auto" height="auto" viewBox="0 0 24 24" fill="none" xmlns="http://www.w3.org/2000/svg">
<path d="M8.14141 20.601C7.50192 20.601 7.61064 20.3595 7.39007 19.7506L5.50977 13.5625L19.9838 4.97559" fill="currentColor"/>
<path d="M8.14062 20.6012C8.63406 20.6012 8.85199 20.3755 9.12749 20.1078L11.7591 17.5488L8.47649 15.5693" fill="#8E909C"/>
<path d="M8.47667 15.5697L16.4308 21.4463C17.3386 21.9471 17.9935 21.6877 18.2197 20.6037L21.4574 5.34624C21.7888 4.01726 20.9508 3.41429 20.0824 3.80854L1.07041 11.1395C-0.227316 11.66 -0.219585 12.3841 0.833894 12.7066L5.71279 14.2295L17.008 7.10352C17.5412 6.78015 18.0307 6.95384 17.629 7.31043" fill="currentColor"/>
</svg>
