<svg width="21" height="4" viewBox="0 0 21 4" fill="none" xmlns="http://www.w3.org/2000/svg">
<path d="M2.00501 4C1.45698 4 0.985798 3.80618 0.591479 3.41855C0.19716 3.02423 0 2.54971 0 1.99499C0 1.44695 0.19716 0.979114 0.591479 0.591479C0.985798 0.19716 1.45698 0 2.00501 0C2.55305 0 3.02423 0.19716 3.41855 0.591479C3.81287 0.979114 4.01003 1.44695 4.01003 1.99499C4.01003 2.36257 3.91646 2.70008 3.72932 3.00752C3.54887 3.30827 3.30827 3.54887 3.00752 3.72932C2.70677 3.90977 2.3726 4 2.00501 4Z" fill="#2B313B"/>
<path d="M10.2823 4C9.73427 4 9.26309 3.80618 8.86877 3.41855C8.47445 3.02423 8.27729 2.54971 8.27729 1.99499C8.27729 1.44695 8.47445 0.979114 8.86877 0.591479C9.26309 0.19716 9.73427 0 10.2823 0C10.8303 0 11.3015 0.19716 11.6958 0.591479C12.0902 0.979114 12.2873 1.44695 12.2873 1.99499C12.2873 2.36257 12.1938 2.70008 12.0066 3.00752C11.8262 3.30827 11.5856 3.54887 11.2848 3.72932C10.9841 3.90977 10.6499 4 10.2823 4Z" fill="#2B313B"/>
<path d="M18.5596 4C18.0116 4 17.5404 3.80618 17.1461 3.41855C16.7517 3.02423 16.5546 2.54971 16.5546 1.99499C16.5546 1.44695 16.7517 0.979114 17.1461 0.591479C17.5404 0.19716 18.0116 0 18.5596 0C19.1076 0 19.5788 0.19716 19.9731 0.591479C20.3675 0.979114 20.5646 1.44695 20.5646 1.99499C20.5646 2.36257 20.471 2.70008 20.2839 3.00752C20.1035 3.30827 19.8629 3.54887 19.5621 3.72932C19.2614 3.90977 18.9272 4 18.5596 4Z" fill="#2B313B"/>
</svg>
