<?xml version="1.0" standalone="no"?>
<!DOCTYPE svg PUBLIC "-//W3C//DTD SVG 20010904//EN"
 "http://www.w3.org/TR/2001/REC-SVG-20010904/DTD/svg10.dtd">
<svg version="1.0" xmlns="http://www.w3.org/2000/svg"
 width="2144.000000pt" height="2144.000000pt" viewBox="0 0 2144.000000 2144.000000"
 preserveAspectRatio="xMidYMid meet">
<metadata>
Created by potrace 1.14, written by Peter Selinger 2001-2017
</metadata>
<g clip-path="url(#clip0_1_47)">
<path fill-rule="evenodd" clip-rule="evenodd" d="M1045.3 622.804C1035.43 613.927 1020.34 614.41 1011.06 623.899L273.337 1378.12L-8.25 1101.46L729.475 347.243C886.499 186.707 1141.8 178.544 1308.72 328.722C1462.15 466.77 1492.6 696.165 1380.51 869.613L982.178 1486C974.782 1497.45 976.942 1512.61 987.237 1521.52C998.179 1530.99 1014.6 1530.25 1024.64 1519.83L1526.75 999.066C1594.65 928.648 1688.16 888.883 1785.87 888.883L2151.75 888.883V1284.08L1800.29 1284.08L1308.21 1794.45C1152.77 1955.66 898.763 1967.14 729.482 1820.6C570.201 1682.71 536.794 1448.21 651.21 1271.17L1049.54 654.776C1056.17 644.523 1054.37 630.964 1045.3 622.804Z" fill="black"/>
</g>
<defs>
<clipPath id="clip0_1_47">
<rect width="2144" height="2144" fill="white"/>
</clipPath>
</defs>
</svg>