<svg width="2859" height="2859" viewBox="0 0 2859 2859" fill="none" xmlns="http://www.w3.org/2000/svg">
<g clip-path="url(#clip0_1_47)">
<path fill-rule="evenodd" clip-rule="evenodd" d="M1393.73 830.406C1380.58 818.57 1360.46 819.213 1348.08 831.865L364.449 1837.49L-11 1468.62L972.633 462.99C1182 248.943 1522.41 238.058 1744.96 438.296C1949.54 622.361 1990.13 928.22 1840.68 1159.48L1309.57 1981.34C1299.71 1996.6 1302.59 2016.81 1316.32 2028.69C1330.91 2041.32 1352.8 2040.33 1366.19 2026.44L2035.67 1332.09C2126.2 1238.2 2250.88 1185.18 2381.16 1185.18L2869 1185.18V1712.11L2400.39 1712.11L1744.27 2392.6C1537.03 2607.55 1198.35 2622.85 972.643 2427.47C760.268 2243.62 715.726 1930.95 868.28 1694.89L1399.39 873.035C1408.23 859.365 1405.83 841.286 1393.73 830.406Z" fill="black"/>
</g>
<defs>
<clipPath id="clip0_1_47">
<rect width="2858.67" height="2858.67" fill="white"/>
</clipPath>
</defs>
</svg>
