<svg width="18" height="18" viewBox="0 0 18 18" fill="none" xmlns="http://www.w3.org/2000/svg">
  <path fill="black"
    d="M8.99169 0.666504C4.39169 0.666504 0.666687 4.39984 0.666687 8.99984C0.666687 13.5998 4.39169 17.3332 8.99169 17.3332C13.6 17.3332 17.3334 13.5998 17.3334 8.99984C17.3334 4.39984 13.6 0.666504 8.99169 0.666504ZM9.00002 15.6665C5.31669 15.6665 2.33335 12.6832 2.33335 8.99984C2.33335 5.3165 5.31669 2.33317 9.00002 2.33317C12.6834 2.33317 15.6667 5.3165 15.6667 8.99984C15.6667 12.6832 12.6834 15.6665 9.00002 15.6665ZM9.41669 4.83317H8.16669V9.83317L12.5417 12.4582L13.1667 11.4332L9.41669 9.20817V4.83317Z" />
</svg>
