<svg width="44" height="44" viewBox="0 0 44 44" fill="none" xmlns="http://www.w3.org/2000/svg">
<rect x="1" y="1" width="42" height="42" rx="21" fill="#F2FCF5"/>
<path d="M28.3125 19.7145L20.9821 15.0355C20.6365 14.8148 20.2347 14.6881 19.8197 14.669C19.4047 14.6499 18.992 14.7391 18.6259 14.9271C18.2597 15.1151 17.9538 15.3947 17.7408 15.7362C17.5278 16.0777 17.4158 16.4682 17.4167 16.8659V26.2215C17.4166 26.6189 17.5293 27.0088 17.7426 27.3496C17.9559 27.6905 18.2619 27.9695 18.6279 28.1569C18.9939 28.3444 19.4062 28.4332 19.8208 28.4139C20.2354 28.3946 20.6368 28.268 20.9821 28.0475L28.3125 23.3685C28.6265 23.1681 28.884 22.8966 29.0621 22.5781C29.2402 22.2595 29.3334 21.9039 29.3334 21.5426C29.3334 21.1813 29.2402 20.8257 29.0621 20.5071C28.884 20.1886 28.6265 19.9171 28.3125 19.7167V19.7145Z" stroke="#1EBA52" stroke-width="2.75" stroke-linecap="round" stroke-linejoin="round"/>
<rect x="1" y="1" width="42" height="42" rx="21" stroke="white" stroke-width="2"/>
</svg>
