<svg width="auto" height="auto" viewBox="0 0 24 22" fill="none" xmlns="http://www.w3.org/2000/svg">
<path d="M7.57758 21.9092C16.5744 21.9092 21.4944 13.5154 21.4944 6.2365C21.4944 5.99809 21.4901 5.76075 21.4806 5.52449C22.4356 4.74696 23.2657 3.77667 23.9204 2.67212C23.044 3.11083 22.1009 3.40615 21.1115 3.53932C22.1214 2.85737 22.8966 1.77862 23.2624 0.492616C22.3174 1.12355 21.2708 1.58212 20.1565 1.8297C19.2639 0.759024 17.9932 0.0893555 16.5862 0.0893555C13.885 0.0893555 11.6946 2.55622 11.6946 5.59697C11.6946 6.02922 11.7376 6.44967 11.8215 6.85297C7.75628 6.62261 4.15156 4.4307 1.73908 1.09777C1.31902 1.91181 1.0768 2.8574 1.0768 3.86636C1.0768 5.77743 1.94032 7.46453 3.25344 8.4515C2.45096 8.42358 1.69712 8.1755 1.03824 7.76257C1.03752 7.78568 1.03752 7.80822 1.03752 7.83292C1.03752 10.5006 2.72352 12.7279 4.9616 13.2326C4.55059 13.3588 4.11816 13.4264 3.67184 13.4264C3.35715 13.4264 3.05056 13.3916 2.75256 13.3271C3.37526 15.5158 5.18096 17.1084 7.32176 17.1529C5.64768 18.6307 3.5388 19.5108 1.2468 19.5108C0.852482 19.5108 0.462934 19.4855 0.0800781 19.4345C2.2448 20.9971 4.8152 21.9089 7.57784 21.9089" fill="currentColor" />
</svg>
