<svg width="85" height="37" viewBox="0 0 85 37" fill="none" xmlns="http://www.w3.org/2000/svg">
<path d="M27.2243 21.6559L25.1382 26.3574C24.9976 26.6743 25.3083 27.0039 25.6314 26.8807L33.2506 23.9755C37.4638 22.3691 42.9334 16.8281 42.9334 13.7051C42.9334 10.8974 37.5108 4.89742 33.3857 3.5349L22.7464 0.0207055C22.3964 -0.0949031 22.0975 0.297465 22.3004 0.606068L24.4608 3.89078C24.7026 4.2583 24.4683 4.75193 24.0316 4.79531L11.5321 6.03692C11.1728 6.07261 11.0519 6.5378 11.3481 6.74504L14.751 9.12589C15.0895 9.36266 15.0825 9.86755 14.7377 10.0948L9.62698 13.4638C9.35407 13.6437 9.03165 13.7328 8.70543 13.7185L0.406475 13.3549C-0.00343963 13.337 -0.157883 13.8858 0.200859 14.0857L9.40222 19.2108C9.74603 19.4023 10.1494 19.456 10.5311 19.361L14.6051 18.3475C15.1342 18.2159 15.6933 18.3718 16.0787 18.7586L19.1812 21.8717C19.5854 22.2774 20.179 22.4277 20.7267 22.2631L26.291 20.5912C26.9277 20.3999 27.4946 21.0466 27.2243 21.6559Z" fill="url(#paint0_linear_25_2458)"/>
<path d="M40.6818 26.4196V36.3357C40.6818 36.6675 40.9498 36.9364 41.2804 36.9364H51.0314C51.362 36.9364 51.63 36.6675 51.63 36.3357V26.4213C51.63 26.0896 51.898 25.8207 52.2286 25.8207L64.6597 25.8207C64.8659 25.8207 65.0576 25.9271 65.167 26.1025L71.793 36.7182C71.9025 36.8935 72.0942 37 72.3004 37H84.4004C84.8768 37 85.1623 36.4688 84.9006 36.0694L76.5735 23.3575C76.5713 23.3541 76.5701 23.3502 76.5701 23.3462C76.5701 23.3349 76.5793 23.3257 76.5905 23.3256C80.5584 23.293 84.2732 19.6259 84.2732 13.0961C84.2732 5.84535 77.8859 1.84441 73.0585 1.84397L73.0559 1.84319V1.82211C73.0559 1.81792 73.0525 1.81451 73.0483 1.81451H41.2804C41.036 1.81451 40.8258 1.96149 40.7328 2.17217C41.1621 5.93024 44.6468 10.0091 52.2641 10.0091L67.8871 10.0098C69.5984 10.0098 71.8625 11.4284 71.8625 13.9989C71.8625 16.3234 70.5333 17.6246 69.1201 17.6254L52.2641 17.6254V17.6315C43.9975 17.6315 40.5981 22.4353 40.6889 26.4196H40.6818Z" fill="#2B313B"/>
<defs>
<linearGradient id="paint0_linear_25_2458" x1="1.29563" y1="14.7557" x2="38.3082" y2="14.3339" gradientUnits="userSpaceOnUse">
<stop offset="1.58702e-05" stop-color="#E61A11"/>
<stop offset="0.554808" stop-color="#E9712E"/>
<stop offset="1" stop-color="#FFD231"/>
</linearGradient>
</defs>
</svg>
