<svg width="67" height="30" viewBox="0 0 67 30" fill="none" xmlns="http://www.w3.org/2000/svg">

<path fill-rule="evenodd" clip-rule="evenodd" d="M31.9006 21.056V28.686C31.9006 28.9413 32.1075 29.1482 32.3628 29.1482H39.8916C40.1469 29.1482 40.3538 28.9413 40.3538 28.686V21.0573C40.3538 20.8021 40.5607 20.5951 40.816 20.5951L50.414 20.5951C50.5732 20.5951 50.7212 20.6771 50.8057 20.812L55.9217 28.9803C56.0062 29.1153 56.1542 29.1972 56.3134 29.1972H65.6559C66.0237 29.1972 66.2441 28.7885 66.0421 28.4811L59.6127 18.6998C59.611 18.6972 59.6101 18.6942 59.6101 18.6911C59.6101 18.6824 59.6172 18.6754 59.6258 18.6753C62.6895 18.6502 65.5576 15.8285 65.5576 10.8041C65.5576 5.22492 60.626 2.14636 56.8988 2.14602L56.8967 2.14542V2.1292C56.8967 2.12597 56.8941 2.12335 56.8909 2.12335H40.3538H32.3628C32.1741 2.12335 32.0118 2.23645 31.94 2.39856C32.2715 5.29024 34.962 8.42875 40.8433 8.42875V8.42929L52.9059 8.42929C54.2272 8.42929 55.9753 9.52084 55.9753 11.4988C55.9753 13.2874 54.9491 14.2886 53.8579 14.2892L40.8433 14.2892V14.2939C34.4607 14.2939 31.836 17.9902 31.9061 21.056H31.9006Z" fill="white"/>
<path d="M21.5101 17.3905L19.8994 21.0082C19.7909 21.252 20.0307 21.5056 20.2802 21.4108L26.1631 19.1754C29.416 17.9393 33.6391 13.6757 33.6391 11.2727C33.6391 9.11231 29.4524 4.49554 26.2674 3.44713L18.0527 0.743106C17.7825 0.65415 17.5517 0.956061 17.7084 1.19352L19.3764 3.72098C19.5631 4.00376 19.3822 4.38359 19.045 4.41697L9.39413 5.37234C9.11667 5.3998 9.02333 5.75775 9.25203 5.91721L11.8795 7.74918C12.1408 7.93136 12.1354 8.31986 11.8692 8.49475L7.92317 11.087C7.71246 11.2254 7.46351 11.294 7.21164 11.283L0.803998 11.0033C0.487502 10.9894 0.368256 11.4118 0.645241 11.5655L7.74963 15.5091C8.01509 15.6565 8.32652 15.6978 8.62121 15.6247L11.7668 14.8448C12.1753 14.7435 12.607 14.8636 12.9046 15.1612L15.3 17.5566C15.6121 17.8687 16.0704 17.9844 16.4933 17.8577L20.7895 16.5713C21.2811 16.4241 21.7188 16.9217 21.5101 17.3905Z" fill="url(#paint0_linear)"/>
<defs>
<linearGradient id="paint0_linear" x1="1.49051" y1="12.0811" x2="30.068" y2="11.7543" gradientUnits="userSpaceOnUse">
<stop offset="1.58702e-05" stop-color="#E61A11"/>
<stop offset="0.554808" stop-color="#E9712E"/>
<stop offset="1" stop-color="#FFD231"/>
</linearGradient>
</defs>

</svg>
