<svg width="127" height="33" viewBox="0 0 127 33" fill="none" xmlns="http://www.w3.org/2000/svg">
<path d="M25.0897 3.70189C25.4721 3.03522 24.9908 2.20435 24.2222 2.20435H15.6893L1.78784 26.4409C1.40546 27.1075 1.88674 27.9384 2.65528 27.9384L11.1882 27.9384L25.0897 3.70189Z" fill="white"/>
<path d="M2.19584 2.20435H11.078L4.91103 12.9562L0.461051 5.19959C-0.303878 3.86627 0.658672 2.20435 2.19584 2.20435Z" fill="white"/>
<path d="M15.7996 27.9384H24.8168C26.3539 27.9384 27.3165 26.2765 26.5515 24.9432L22.0341 17.0689L15.7996 27.9384Z" fill="#9692BB"/>
<path d="M67.328 8.41223C67.328 9.29179 67.009 9.97766 66.371 10.4698C65.733 10.962 64.8671 11.2081 63.7733 11.2081C62.5884 11.2081 61.677 11.0555 61.0389 10.7501V9.62903C61.4491 9.80221 61.8957 9.93892 62.3788 10.0392C62.8619 10.1394 63.3404 10.1896 63.8143 10.1896C64.5891 10.1896 65.1724 10.0437 65.5643 9.75208C65.9563 9.45585 66.1522 9.0457 66.1522 8.52161C66.1522 8.17525 66.0816 7.8927 65.9403 7.67395C65.8036 7.45064 65.5712 7.24556 65.243 7.05872C64.9195 6.87187 64.425 6.65995 63.7596 6.42297C62.83 6.09029 62.1646 5.69609 61.7635 5.24036C61.3671 4.78463 61.1688 4.1899 61.1688 3.45618C61.1688 2.68599 61.4582 2.07304 62.037 1.61731C62.6158 1.16158 63.3814 0.933716 64.3339 0.933716C65.3274 0.933716 66.2411 1.11601 67.0751 1.48059L66.7128 2.49231C65.8879 2.14596 65.0858 1.97278 64.3065 1.97278C63.6913 1.97278 63.2105 2.10494 62.8641 2.36926C62.5178 2.63359 62.3446 3.00045 62.3446 3.46985C62.3446 3.8162 62.4084 4.10103 62.536 4.32434C62.6636 4.54309 62.8778 4.74589 63.1786 4.93274C63.4839 5.11503 63.9488 5.31783 64.5731 5.54114C65.6213 5.91484 66.3413 6.31588 66.7333 6.74426C67.1298 7.17265 67.328 7.72864 67.328 8.41223Z" fill="white"/>
<path d="M71.621 10.2716C71.8215 10.2716 72.0152 10.2579 72.202 10.2306C72.3889 10.1987 72.537 10.1668 72.6464 10.1349V11.0031C72.5233 11.0623 72.341 11.1101 72.0995 11.1466C71.8625 11.1876 71.6483 11.2081 71.4569 11.2081C70.0077 11.2081 69.2831 10.4448 69.2831 8.91809V4.46106H68.2098V3.91418L69.2831 3.4425L69.7616 1.8429H70.4178V3.57922H72.5917V4.46106H70.4178V8.87024C70.4178 9.32141 70.5249 9.66777 70.7391 9.9093C70.9533 10.1508 71.2473 10.2716 71.621 10.2716Z" fill="white"/>
<path d="M77.5682 3.4425C77.9009 3.4425 78.1994 3.46985 78.4637 3.52454L78.3065 4.57727C77.9966 4.50891 77.7232 4.47473 77.4862 4.47473C76.8801 4.47473 76.3606 4.72083 75.9276 5.21301C75.4992 5.7052 75.285 6.31816 75.285 7.05188V11.0714H74.1503V3.57922H75.0868L75.2167 4.96692H75.2714C75.5494 4.47929 75.8843 4.10331 76.2762 3.83899C76.6682 3.57467 77.0988 3.4425 77.5682 3.4425Z" fill="white"/>
<path d="M83.0302 11.2081C81.9227 11.2081 81.0477 10.8709 80.4052 10.1964C79.7671 9.52193 79.4481 8.58541 79.4481 7.38684C79.4481 6.17916 79.7443 5.21985 80.3368 4.50891C80.9338 3.79797 81.7336 3.4425 82.7362 3.4425C83.675 3.4425 84.4178 3.7524 84.9647 4.37219C85.5116 4.98743 85.785 5.8009 85.785 6.81262V7.5304H80.6239C80.6467 8.40995 80.8677 9.0776 81.287 9.53333C81.7108 9.98905 82.3055 10.2169 83.0712 10.2169C83.8778 10.2169 84.6753 10.0483 85.4637 9.71106V10.7228C85.0627 10.896 84.6822 11.019 84.3221 11.0919C83.9667 11.1694 83.536 11.2081 83.0302 11.2081ZM82.7225 4.3927C82.121 4.3927 81.6402 4.58866 81.2802 4.98059C80.9247 5.37252 80.715 5.91484 80.6512 6.60754H84.5682C84.5682 5.89205 84.4087 5.34517 84.0897 4.96692C83.7707 4.58411 83.315 4.3927 82.7225 4.3927Z" fill="white"/>
<path d="M92.3339 11.0714L92.1083 10.005H92.0536C91.6799 10.4744 91.3062 10.7934 90.9325 10.962C90.5634 11.1261 90.1008 11.2081 89.5448 11.2081C88.802 11.2081 88.2186 11.0167 87.7948 10.6339C87.3755 10.2511 87.1659 9.7065 87.1659 9.00012C87.1659 7.4871 88.3759 6.69413 90.7958 6.62122L92.0673 6.5802V6.11536C92.0673 5.52747 91.9397 5.09452 91.6844 4.81653C91.4338 4.53398 91.0305 4.3927 90.4745 4.3927C89.8501 4.3927 89.1438 4.58411 88.3553 4.96692L88.0067 4.09875C88.3759 3.89823 88.7792 3.74101 89.2167 3.62708C89.6587 3.51314 90.1008 3.45618 90.5428 3.45618C91.4361 3.45618 92.0969 3.65442 92.5253 4.0509C92.9582 4.44739 93.1747 5.08313 93.1747 5.95813V11.0714H92.3339ZM89.7704 10.2716C90.4768 10.2716 91.0305 10.0779 91.4315 9.69055C91.8371 9.30318 92.0399 8.76086 92.0399 8.0636V7.38684L90.9052 7.43469C90.0028 7.46659 89.3511 7.60787 88.9501 7.85852C88.5536 8.10461 88.3553 8.48971 88.3553 9.01379C88.3553 9.42395 88.4784 9.73612 88.7245 9.95032C88.9751 10.1645 89.3238 10.2716 89.7704 10.2716Z" fill="white"/>
<path d="M105.069 11.0714V6.19739C105.069 5.60038 104.942 5.15377 104.686 4.85754C104.431 4.55676 104.035 4.40637 103.497 4.40637C102.791 4.40637 102.269 4.60917 101.932 5.01477C101.594 5.42037 101.426 6.04472 101.426 6.88782V11.0714H100.291V6.19739C100.291 5.60038 100.163 5.15377 99.9081 4.85754C99.6529 4.55676 99.2541 4.40637 98.7118 4.40637C98.0009 4.40637 97.479 4.62056 97.1464 5.04895C96.8182 5.47278 96.6542 6.17004 96.6542 7.14075V11.0714H95.5194V3.57922H96.4423L96.6268 4.60461H96.6815C96.8957 4.24003 97.1965 3.9552 97.5839 3.75012C97.9758 3.54504 98.4133 3.4425 98.8964 3.4425C100.068 3.4425 100.833 3.86633 101.193 4.71399H101.248C101.471 4.32206 101.795 4.01217 102.219 3.7843C102.642 3.55644 103.126 3.4425 103.668 3.4425C104.516 3.4425 105.149 3.66125 105.568 4.09875C105.992 4.5317 106.204 5.22668 106.204 6.18372V11.0714H105.069Z" fill="white"/>
<path d="M109.683 11.0714H108.549V3.57922H109.683V11.0714ZM108.453 1.54895C108.453 1.28918 108.517 1.10006 108.644 0.981567C108.772 0.858521 108.932 0.796997 109.123 0.796997C109.305 0.796997 109.462 0.858521 109.595 0.981567C109.727 1.10461 109.793 1.29374 109.793 1.54895C109.793 1.80416 109.727 1.99556 109.595 2.12317C109.462 2.24622 109.305 2.30774 109.123 2.30774C108.932 2.30774 108.772 2.24622 108.644 2.12317C108.517 1.99556 108.453 1.80416 108.453 1.54895Z" fill="white"/>
<path d="M117.217 11.0714V6.22473C117.217 5.61405 117.078 5.15833 116.8 4.85754C116.522 4.55676 116.086 4.40637 115.494 4.40637C114.71 4.40637 114.136 4.61829 113.771 5.04211C113.407 5.46594 113.224 6.16549 113.224 7.14075V11.0714H112.09V3.57922H113.013L113.197 4.60461H113.252C113.484 4.23547 113.81 3.95064 114.229 3.75012C114.649 3.54504 115.116 3.4425 115.631 3.4425C116.533 3.4425 117.212 3.66125 117.668 4.09875C118.124 4.5317 118.351 5.22668 118.351 6.18372V11.0714H117.217Z" fill="white"/>
<path d="M126.821 3.57922V4.297L125.433 4.46106C125.561 4.62056 125.675 4.8302 125.775 5.08997C125.876 5.34517 125.926 5.63456 125.926 5.95813C125.926 6.69185 125.675 7.27747 125.174 7.71497C124.672 8.15247 123.984 8.37122 123.109 8.37122C122.886 8.37122 122.676 8.35299 122.48 8.31653C121.997 8.57174 121.756 8.89303 121.756 9.2804C121.756 9.48547 121.84 9.63814 122.009 9.7384C122.177 9.83411 122.467 9.88196 122.877 9.88196H124.203C125.014 9.88196 125.636 10.0529 126.069 10.3947C126.507 10.7365 126.725 11.2332 126.725 11.8849C126.725 12.7143 126.393 13.3455 125.727 13.7784C125.062 14.2159 124.091 14.4347 122.815 14.4347C121.835 14.4347 121.079 14.2524 120.546 13.8878C120.017 13.5232 119.753 13.0083 119.753 12.3429C119.753 11.8872 119.899 11.493 120.19 11.1603C120.482 10.8276 120.892 10.602 121.421 10.4835C121.229 10.3969 121.068 10.2625 120.935 10.0802C120.808 9.89791 120.744 9.68599 120.744 9.44446C120.744 9.17102 120.817 8.93176 120.963 8.72668C121.109 8.52161 121.339 8.32336 121.653 8.13196C121.266 7.97245 120.949 7.70129 120.703 7.31848C120.461 6.93567 120.341 6.49817 120.341 6.00598C120.341 5.18567 120.587 4.55448 121.079 4.11243C121.571 3.66581 122.268 3.4425 123.171 3.4425C123.563 3.4425 123.916 3.48808 124.23 3.57922H126.821ZM120.847 12.3292C120.847 12.7348 121.017 13.0424 121.359 13.2521C121.701 13.4617 122.191 13.5665 122.829 13.5665C123.781 13.5665 124.486 13.423 124.941 13.1359C125.402 12.8533 125.632 12.4682 125.632 11.9806C125.632 11.575 125.506 11.2924 125.256 11.1329C125.005 10.978 124.533 10.9005 123.841 10.9005H122.48C121.965 10.9005 121.564 11.0236 121.277 11.2697C120.99 11.5157 120.847 11.8689 120.847 12.3292ZM121.462 5.97864C121.462 6.50273 121.61 6.89921 121.906 7.16809C122.202 7.43697 122.615 7.57141 123.143 7.57141C124.251 7.57141 124.805 7.03365 124.805 5.95813C124.805 4.83248 124.244 4.26965 123.123 4.26965C122.59 4.26965 122.18 4.41321 121.892 4.70032C121.605 4.98743 121.462 5.41353 121.462 5.97864Z" fill="white"/>
<path d="M68.3397 29.0714H67.0204L64.3339 24.6759L61.5995 29.0714H60.369L63.6913 23.8488L60.5946 19.0773H61.8798L64.3612 23.0353L66.8632 19.0773H68.1005L65.0038 23.8077L68.3397 29.0714Z" fill="white"/>
<path d="M68.4081 21.5792H69.6249L71.2655 25.8517C71.6255 26.8269 71.8488 27.531 71.9354 27.964H71.9901C72.0494 27.7316 72.1724 27.3351 72.3593 26.7745C72.5507 26.2094 73.1705 24.4777 74.2186 21.5792H75.4354L72.2157 30.1105C71.8967 30.9536 71.523 31.5506 71.0946 31.9015C70.6708 32.257 70.149 32.4347 69.5292 32.4347C69.1828 32.4347 68.841 32.396 68.5038 32.3185V31.4093C68.7544 31.464 69.0347 31.4913 69.3446 31.4913C70.1239 31.4913 70.6799 31.0538 71.0126 30.1788L71.4296 29.1124L68.4081 21.5792Z" fill="white"/>
<path d="M77.787 29.0714H76.6522V21.5792H77.787V29.0714ZM76.5565 19.549C76.5565 19.2892 76.6203 19.1001 76.7479 18.9816C76.8755 18.8585 77.035 18.797 77.2264 18.797C77.4087 18.797 77.566 18.8585 77.6981 18.9816C77.8303 19.1046 77.8964 19.2937 77.8964 19.549C77.8964 19.8042 77.8303 19.9956 77.6981 20.1232C77.566 20.2462 77.4087 20.3077 77.2264 20.3077C77.035 20.3077 76.8755 20.2462 76.7479 20.1232C76.6203 19.9956 76.5565 19.8042 76.5565 19.549Z" fill="white"/>
<path d="M89.743 29.0714V24.1974C89.743 23.6004 89.6154 23.1538 89.3602 22.8575C89.105 22.5568 88.7085 22.4064 88.1708 22.4064C87.4644 22.4064 86.9426 22.6092 86.6053 23.0148C86.2681 23.4204 86.0995 24.0447 86.0995 24.8878V29.0714H84.9647V24.1974C84.9647 23.6004 84.8371 23.1538 84.5819 22.8575C84.3267 22.5568 83.9279 22.4064 83.3856 22.4064C82.6747 22.4064 82.1529 22.6206 81.8202 23.049C81.4921 23.4728 81.328 24.17 81.328 25.1407V29.0714H80.1932V21.5792H81.1161L81.3007 22.6046H81.3553C81.5695 22.24 81.8703 21.9552 82.2577 21.7501C82.6496 21.545 83.0871 21.4425 83.5702 21.4425C84.7414 21.4425 85.507 21.8663 85.8671 22.714H85.9218C86.1451 22.3221 86.4686 22.0122 86.8925 21.7843C87.3163 21.5564 87.7994 21.4425 88.3417 21.4425C89.1893 21.4425 89.8228 21.6613 90.2421 22.0988C90.6659 22.5317 90.8778 23.2267 90.8778 24.1837V29.0714H89.743Z" fill="white"/>
<path d="M94.3573 29.0714H93.2225V21.5792H94.3573V29.0714ZM93.1268 19.549C93.1268 19.2892 93.1906 19.1001 93.3182 18.9816C93.4458 18.8585 93.6053 18.797 93.7968 18.797C93.979 18.797 94.1363 18.8585 94.2684 18.9816C94.4006 19.1046 94.4667 19.2937 94.4667 19.549C94.4667 19.8042 94.4006 19.9956 94.2684 20.1232C94.1363 20.2462 93.979 20.3077 93.7968 20.3077C93.6053 20.3077 93.4458 20.2462 93.3182 20.1232C93.1906 19.9956 93.1268 19.8042 93.1268 19.549Z" fill="white"/>
<path d="M101.891 29.0714V24.2247C101.891 23.6141 101.752 23.1583 101.474 22.8575C101.196 22.5568 100.76 22.4064 100.168 22.4064C99.384 22.4064 98.8098 22.6183 98.4452 23.0421C98.0806 23.4659 97.8983 24.1655 97.8983 25.1407V29.0714H96.7635V21.5792H97.6864L97.871 22.6046H97.9257C98.1581 22.2355 98.4839 21.9506 98.9032 21.7501C99.3225 21.545 99.7896 21.4425 100.305 21.4425C101.207 21.4425 101.886 21.6613 102.342 22.0988C102.797 22.5317 103.025 23.2267 103.025 24.1837V29.0714H101.891Z" fill="white"/>
<path d="M111.495 21.5792V22.297L110.107 22.4611C110.235 22.6206 110.349 22.8302 110.449 23.09C110.549 23.3452 110.599 23.6346 110.599 23.9581C110.599 24.6919 110.349 25.2775 109.848 25.715C109.346 26.1525 108.658 26.3712 107.783 26.3712C107.56 26.3712 107.35 26.353 107.154 26.3165C106.671 26.5717 106.43 26.893 106.43 27.2804C106.43 27.4855 106.514 27.6381 106.682 27.7384C106.851 27.8341 107.141 27.882 107.551 27.882H108.877C109.688 27.882 110.31 28.0529 110.743 28.3947C111.181 28.7365 111.399 29.2332 111.399 29.8849C111.399 30.7143 111.067 31.3455 110.401 31.7784C109.736 32.2159 108.765 32.4347 107.489 32.4347C106.509 32.4347 105.753 32.2524 105.22 31.8878C104.691 31.5232 104.427 31.0083 104.427 30.3429C104.427 29.8872 104.572 29.493 104.864 29.1603C105.156 28.8276 105.566 28.602 106.095 28.4835C105.903 28.3969 105.741 28.2625 105.609 28.0802C105.482 27.8979 105.418 27.686 105.418 27.4445C105.418 27.171 105.491 26.9318 105.637 26.7267C105.782 26.5216 106.013 26.3234 106.327 26.132C105.94 25.9725 105.623 25.7013 105.377 25.3185C105.135 24.9357 105.015 24.4982 105.015 24.006C105.015 23.1857 105.261 22.5545 105.753 22.1124C106.245 21.6658 106.942 21.4425 107.845 21.4425C108.237 21.4425 108.59 21.4881 108.904 21.5792H111.495ZM105.52 30.3292C105.52 30.7348 105.691 31.0424 106.033 31.2521C106.375 31.4617 106.865 31.5665 107.503 31.5665C108.455 31.5665 109.159 31.423 109.615 31.1359C110.075 30.8533 110.306 30.4682 110.306 29.9806C110.306 29.575 110.18 29.2924 109.93 29.1329C109.679 28.978 109.207 28.9005 108.515 28.9005H107.154C106.639 28.9005 106.238 29.0236 105.951 29.2697C105.664 29.5157 105.52 29.8689 105.52 30.3292ZM106.136 23.9786C106.136 24.5027 106.284 24.8992 106.58 25.1681C106.876 25.437 107.289 25.5714 107.817 25.5714C108.925 25.5714 109.478 25.0337 109.478 23.9581C109.478 22.8325 108.918 22.2697 107.797 22.2697C107.264 22.2697 106.853 22.4132 106.566 22.7003C106.279 22.9874 106.136 23.4135 106.136 23.9786Z" fill="white"/>
<path fill-rule="evenodd" clip-rule="evenodd" d="M42.8217 29.5351L42.8217 0.503784L43.8217 0.503784L43.8217 29.5351L42.8217 29.5351Z" fill="#413E61"/>
</svg>
