<?xml version="1.0" standalone="no"?>
<!DOCTYPE svg PUBLIC "-//W3C//DTD SVG 20010904//EN"
 "http://www.w3.org/TR/2001/REC-SVG-20010904/DTD/svg10.dtd">
<svg version="1.0" xmlns="http://www.w3.org/2000/svg"
 width="2144.000000pt" height="2144.000000pt" viewBox="0 0 2144.000000 2144.000000"
 preserveAspectRatio="xMidYMid meet">
<metadata>
Created by potrace 1.14, written by Peter Selinger 2001-2017
</metadata>
<g transform="translate(0.000000,2144.000000) scale(0.100000,-0.100000)"
fill="#000000" stroke="none">
<path d="M5698 15273 c-30 -19 -49 -56 -46 -92 2 -17 190 -315 297 -470 92
-132 258 -394 267 -421 7 -19 10 -44 7 -55 -2 -11 -5 -26 -5 -32 -1 -7 -5 -13
-10 -13 -4 0 -7 -3 -5 -8 3 -10 -33 -47 -59 -60 -22 -12 -65 -19 -169 -28
-108 -9 -122 -11 -135 -19 -9 -6 -11 -4 -5 5 5 8 4 11 -2 7 -13 -8 -84 -17
-268 -32 -38 -3 -86 -8 -105 -10 -19 -2 -62 -7 -95 -10 -33 -3 -76 -8 -95 -10
-46 -6 -120 -13 -200 -21 -36 -3 -78 -7 -95 -9 -16 -3 -64 -7 -105 -9 -41 -3
-75 -6 -75 -7 0 -1 -34 -5 -115 -13 -36 -3 -85 -8 -110 -11 -72 -8 -140 -15
-215 -21 -38 -3 -86 -8 -105 -10 -19 -2 -57 -6 -85 -8 -60 -5 -149 -14 -213
-21 -47 -5 -80 -9 -202 -20 -36 -4 -76 -8 -90 -10 -14 -2 -59 -7 -100 -10 -73
-7 -98 -9 -190 -19 -25 -2 -76 -7 -115 -11 -189 -17 -254 -25 -280 -35 -61
-23 -72 -114 -19 -157 16 -13 34 -28 41 -33 7 -6 16 -10 22 -10 5 0 11 -4 13
-8 2 -4 41 -34 88 -67 152 -104 215 -149 218 -157 2 -5 7 -8 12 -8 9 0 409
-277 458 -318 60 -50 71 -140 23 -199 -14 -17 -161 -120 -239 -168 -36 -22
-107 -70 -112 -76 -3 -3 -20 -12 -37 -20 -18 -8 -33 -17 -33 -22 0 -4 -16 -15
-35 -24 -19 -9 -35 -20 -35 -25 0 -4 -4 -8 -9 -8 -6 0 -77 -44 -158 -98 -81
-54 -211 -139 -288 -190 -77 -51 -147 -97 -155 -102 -180 -122 -240 -157 -308
-179 -30 -9 -287 -13 -304 -4 -4 2 -72 6 -150 9 -79 2 -186 6 -238 9 -171 7
-363 16 -450 20 -47 3 -150 7 -230 10 -207 8 -345 14 -345 15 0 1 -223 10
-369 14 -129 4 -142 -1 -170 -56 -27 -54 3 -103 91 -147 26 -14 56 -31 66 -39
9 -9 17 -12 17 -8 0 4 12 -1 28 -12 26 -18 87 -53 197 -112 83 -44 169 -92
180 -100 6 -4 41 -24 78 -44 37 -20 82 -45 100 -55 18 -10 59 -33 92 -51 33
-18 74 -40 90 -50 39 -23 113 -63 195 -108 36 -19 79 -42 95 -52 17 -10 51
-29 77 -44 68 -37 132 -73 211 -117 37 -21 67 -35 67 -32 0 4 7 -2 15 -13 8
-10 15 -15 15 -11 0 4 17 -4 37 -18 21 -14 43 -25 50 -25 6 0 18 -6 25 -12 11
-11 31 -23 123 -72 11 -6 22 -13 25 -16 3 -3 28 -16 55 -30 28 -13 53 -29 57
-35 4 -5 8 -6 8 -1 0 5 8 2 18 -6 9 -9 46 -31 82 -49 36 -19 68 -38 72 -44 5
-7 8 -7 8 0 0 7 3 7 8 0 8 -12 27 -22 135 -77 77 -40 87 -42 176 -44 52 -1
101 2 110 6 13 7 102 30 171 45 8 2 55 13 104 25 49 12 96 24 105 25 9 2 18 4
21 6 3 1 10 3 15 4 6 2 12 4 15 5 12 4 51 13 125 29 33 7 64 16 70 19 5 3 16
7 25 8 8 0 44 9 80 19 36 9 79 19 95 22 38 7 46 9 65 16 44 16 181 42 205 38
6 -1 28 -3 50 -5 22 -3 41 -5 43 -6 1 -2 5 -3 10 -4 4 -1 32 -13 63 -28 45
-23 133 -105 475 -446 230 -230 437 -430 459 -444 107 -66 212 -73 370 -24 6
1 30 8 55 15 25 7 65 19 90 28 25 8 53 17 63 19 36 9 89 24 337 100 85 26 161
47 168 47 6 0 12 3 12 7 0 4 6 7 13 8 20 1 70 13 79 18 7 5 17 7 63 17 6 2 15
5 20 8 6 4 35 12 65 20 30 7 58 18 62 24 4 5 8 7 8 4 0 -4 34 4 75 16 41 13
75 21 75 18 0 -3 6 0 14 6 8 7 27 14 43 17 38 8 45 10 65 18 58 25 148 4 198
-46 61 -62 75 -138 40 -217 -11 -24 -20 -49 -20 -57 0 -8 -4 -14 -10 -14 -5 0
-10 -8 -10 -18 0 -10 -6 -26 -13 -37 -8 -11 -21 -38 -29 -60 -19 -48 -85 -193
-98 -217 -6 -10 -10 -24 -10 -32 0 -7 -7 -19 -15 -26 -9 -7 -14 -15 -11 -17 2
-3 -12 -39 -31 -81 -19 -42 -43 -96 -54 -119 -31 -69 -42 -98 -41 -105 1 -5
-3 -8 -9 -8 -5 0 -7 -4 -4 -10 3 -5 1 -10 -4 -10 -6 0 -10 -3 -9 -7 1 -9 -3
-19 -72 -173 -29 -63 -57 -126 -63 -140 -14 -33 -16 -102 -2 -116 41 -43 94
-51 145 -24 10 5 20 6 24 3 3 -3 6 -2 6 4 0 6 10 13 23 16 12 2 51 16 87 30
36 13 121 46 190 71 69 26 134 51 145 56 48 20 212 82 268 102 34 11 67 24 73
29 6 5 19 10 30 12 10 2 28 8 39 14 11 6 22 11 25 11 7 1 33 10 135 50 50 19
95 35 100 37 13 3 42 14 80 30 17 7 140 54 275 105 360 135 482 185 610 249
131 66 159 81 178 99 7 6 17 12 22 12 9 0 172 99 180 110 3 3 12 10 20 14 25
12 55 30 70 44 8 7 58 42 110 79 52 37 97 70 100 73 3 3 32 27 65 52 33 25 71
55 85 67 14 11 30 24 35 28 13 10 152 131 201 174 56 51 373 369 367 369 -4 0
3 8 13 18 18 16 128 142 149 170 6 8 20 25 33 38 12 14 22 29 22 34 0 4 3 10
8 12 4 2 24 26 44 53 21 28 41 55 46 60 23 29 150 226 167 260 11 22 23 42 27
45 9 7 117 237 122 258 1 9 8 30 15 46 6 16 13 38 16 50 2 11 4 22 6 24 3 4
17 70 22 107 1 11 5 25 8 30 7 15 3 157 -6 184 -4 13 -8 38 -9 55 -2 17 -9 42
-16 56 -7 14 -12 25 -10 25 1 0 -6 28 -16 63 -10 34 -22 62 -26 62 -4 0 -8 7
-8 15 0 8 -27 67 -61 132 -34 65 -66 128 -72 140 -7 13 -15 23 -19 23 -5 0 -8
5 -8 11 0 5 -18 37 -40 69 -22 32 -40 61 -40 64 0 4 -7 14 -15 24 -8 9 -59 76
-112 147 -53 72 -101 133 -107 137 -6 4 -8 8 -4 8 3 0 -8 15 -25 33 -43 44
-117 130 -117 134 0 12 -348 362 -440 443 -34 30 -83 73 -108 95 -25 22 -54
46 -66 54 -12 8 -28 22 -36 31 -8 8 -42 35 -75 60 -33 25 -62 47 -65 50 -16
17 -211 150 -219 150 -6 0 -11 4 -11 8 0 4 -30 26 -66 47 -36 22 -78 47 -92
56 -15 9 -30 14 -34 12 -5 -2 -8 0 -8 6 0 5 -27 22 -60 38 -33 15 -60 31 -60
35 0 5 -7 8 -14 8 -8 0 -36 11 -62 25 -25 13 -54 26 -63 27 -9 2 -18 6 -22 10
-4 7 -482 171 -529 183 -34 8 -817 267 -835 276 -11 5 -30 11 -43 12 -12 0
-22 5 -22 10 0 4 -3 6 -7 4 -5 -3 -19 0 -33 6 -14 5 -32 11 -41 13 -9 2 -29 9
-45 15 -16 7 -33 13 -39 14 -5 0 -17 4 -25 7 -18 7 -144 49 -430 143 -113 38
-211 68 -217 68 -7 0 -13 4 -13 9 0 4 -10 8 -23 8 -13 0 -27 3 -31 7 -3 4 -17
8 -29 10 -12 2 -31 7 -42 12 -11 6 -65 24 -120 41 -55 18 -109 36 -120 40 -36
15 -125 42 -153 46 -15 2 -39 -4 -54 -13z"/>
<path d="M10311 14833 c-20 -7 -48 -26 -63 -43 -28 -30 -30 -59 -13 -139 3
-12 7 -29 9 -40 2 -10 7 -35 10 -55 3 -21 13 -51 22 -68 9 -17 11 -27 4 -23
-7 4 -5 -6 4 -24 9 -17 16 -32 15 -33 -2 -6 14 -64 21 -73 3 -5 15 -32 25 -60
22 -61 125 -265 142 -283 7 -7 13 -17 13 -22 0 -5 6 -15 13 -22 6 -7 32 -42
56 -77 92 -135 227 -278 371 -396 47 -39 87 -73 88 -77 2 -5 10 -8 18 -8 8 0
14 -4 14 -10 0 -5 5 -10 10 -10 6 0 20 -9 32 -20 12 -11 28 -20 35 -20 7 0 13
-4 13 -10 0 -5 6 -10 14 -10 8 0 16 -3 18 -7 4 -10 107 -73 119 -73 5 0 9 -5
9 -12 0 -6 3 -8 6 -5 4 4 19 -2 34 -13 16 -11 33 -20 40 -20 6 0 18 -7 27 -15
8 -8 19 -13 24 -10 5 4 9 1 9 -6 0 -7 3 -9 7 -6 3 4 12 2 18 -3 10 -9 207 -94
227 -99 4 -1 13 -3 20 -6 161 -53 234 -76 268 -82 8 -1 42 -9 75 -18 91 -24
98 -25 131 -29 17 -2 36 -6 43 -10 6 -4 16 -4 21 -1 6 3 10 2 10 -2 0 -5 12
-8 28 -7 15 1 32 -1 37 -5 6 -3 19 -6 30 -7 11 -1 40 -5 65 -8 51 -7 90 -12
170 -20 30 -4 80 -9 110 -12 30 -4 996 -8 2145 -9 1150 -1 2124 -6 2166 -9 42
-4 104 -15 137 -25 34 -11 63 -16 66 -13 3 3 6 -1 6 -8 0 -7 3 -11 6 -7 9 8
149 -58 224 -106 72 -46 108 -76 187 -157 74 -76 83 -86 83 -94 0 -4 8 -16 18
-26 26 -28 96 -174 120 -250 25 -80 35 -132 36 -187 1 -24 3 -43 6 -43 13 0
-5 -227 -25 -326 -26 -123 -95 -290 -142 -342 -7 -7 -13 -17 -13 -21 0 -8
-103 -112 -135 -136 -69 -52 -195 -116 -195 -99 0 4 -7 1 -14 -6 -8 -6 -41
-14 -73 -16 -32 -3 -1055 -6 -2273 -8 -1218 -2 -2215 -4 -2215 -5 0 -1 -34 -4
-75 -6 -41 -2 -100 -6 -130 -10 -30 -3 -75 -8 -100 -10 -25 -2 -58 -6 -75 -9
-16 -2 -50 -7 -75 -11 -62 -9 -292 -55 -300 -60 -4 -2 -20 -6 -36 -9 -16 -3
-60 -15 -99 -26 -38 -11 -81 -23 -95 -26 -13 -3 -31 -11 -39 -17 -8 -7 -17
-11 -20 -10 -12 4 -57 -11 -134 -43 -42 -18 -80 -33 -82 -33 -17 1 -225 -104
-315 -159 -19 -12 -48 -29 -64 -38 -43 -24 -171 -116 -174 -126 -2 -4 -8 -8
-14 -8 -5 0 -15 -6 -22 -12 -7 -7 -32 -29 -56 -48 -58 -46 -220 -210 -220
-222 0 -5 -4 -6 -10 -3 -5 3 -10 1 -10 -5 0 -6 -6 -17 -12 -24 -7 -7 -24 -27
-38 -45 -14 -18 -30 -39 -37 -46 -17 -17 -143 -213 -143 -221 0 -3 -9 -19 -21
-35 -11 -16 -17 -29 -13 -29 4 0 0 -8 -9 -17 -8 -10 -16 -21 -16 -25 -1 -5
-13 -34 -27 -65 -32 -74 -85 -223 -78 -223 2 0 -1 -10 -7 -22 -7 -13 -14 -34
-17 -48 -7 -47 -10 -65 -12 -67 -4 -4 -6 -14 -15 -73 -4 -30 -10 -64 -13 -75
-7 -29 -14 -2694 -7 -2730 7 -40 53 -90 96 -103 48 -15 2449 -15 2499 0 37 11
56 27 85 72 18 27 19 79 20 1285 1 882 4 1263 12 1281 12 28 46 61 80 79 16 8
444 11 1593 11 1472 0 1573 -1 1598 -18 15 -9 34 -24 42 -32 21 -21 70 -97 70
-110 0 -5 3 -10 8 -10 4 0 12 -10 18 -23 18 -36 171 -281 187 -299 8 -9 18
-25 22 -37 3 -12 10 -21 15 -21 4 0 10 -8 13 -17 7 -21 27 -53 202 -328 48
-76 108 -172 129 -208 10 -18 21 -34 25 -37 3 -3 12 -16 19 -30 15 -31 33 -60
49 -77 6 -7 15 -22 18 -33 3 -11 11 -20 16 -20 6 0 7 -4 4 -10 -3 -5 -1 -10 4
-10 6 0 11 -7 11 -15 0 -8 5 -15 10 -15 6 0 10 -4 10 -9 0 -12 102 -175 113
-179 4 -2 7 -9 7 -16 0 -7 9 -23 20 -36 11 -13 20 -28 20 -35 0 -7 9 -20 20
-30 11 -10 20 -24 20 -32 0 -7 5 -13 10 -13 6 0 10 -7 10 -15 0 -8 5 -15 10
-15 6 0 10 -6 10 -14 0 -7 9 -25 21 -40 11 -14 17 -26 12 -26 -4 0 -3 -4 3 -8
14 -9 104 -150 104 -162 0 -6 3 -10 8 -10 4 0 12 -9 17 -20 15 -29 98 -164
105 -170 4 -3 10 -12 13 -20 4 -8 15 -27 25 -42 9 -15 46 -74 81 -130 36 -57
69 -106 75 -110 6 -4 7 -8 2 -8 -5 0 -2 -8 6 -17 8 -10 38 -56 68 -103 29 -47
60 -92 70 -101 45 -44 -16 -43 1595 -43 1697 1 1566 -5 1616 65 21 31 33 102
20 124 -3 6 -6 15 -7 20 -2 13 -85 138 -97 146 -5 3 -9 10 -9 15 -1 10 -27 52
-43 70 -8 10 -61 90 -100 153 -9 15 -98 149 -227 344 -32 48 -58 92 -58 97 0
6 -4 10 -9 10 -5 0 -16 15 -25 33 -16 30 -94 148 -114 172 -5 6 -11 15 -13 20
-4 9 -62 98 -231 353 -37 57 -68 108 -68 113 0 5 -4 9 -10 9 -5 0 -10 6 -10
14 0 8 -4 16 -8 18 -5 2 -29 35 -53 73 -24 39 -47 75 -52 80 -4 6 -27 39 -50
75 -22 36 -44 67 -47 70 -13 12 -40 60 -33 60 5 0 3 4 -3 8 -12 8 -148 211
-360 537 -21 33 -42 62 -46 63 -5 2 -8 8 -8 13 0 6 -18 36 -39 67 -22 31 -72
107 -111 167 -40 61 -77 113 -82 116 -5 3 -10 10 -10 15 -1 17 -21 54 -30 54
-4 0 -8 6 -8 14 0 8 -3 16 -7 18 -9 3 -73 96 -73 104 0 3 -7 12 -15 21 -25 24
-12 37 36 39 52 2 154 12 189 19 13 2 42 7 63 10 22 4 49 10 62 15 13 5 26 6
29 3 3 -4 6 -1 6 6 0 7 4 10 9 6 9 -5 86 19 171 53 14 5 30 11 35 12 6 1 28
12 50 23 22 12 42 22 45 22 5 1 97 50 130 70 92 55 266 193 347 276 79 82 156
169 183 209 8 12 33 47 56 78 22 32 55 84 74 117 18 33 36 62 40 65 6 5 27 51
27 60 1 3 15 29 32 58 17 29 31 55 31 58 0 8 28 72 46 106 8 14 14 35 14 45 0
10 4 23 9 28 9 10 78 222 86 261 2 11 4 19 5 19 2 0 9 33 15 65 2 14 4 25 5
25 1 0 4 11 7 25 8 40 11 55 13 55 1 0 4 14 6 30 1 17 5 44 8 60 3 17 8 41 10
55 3 14 5 25 6 25 1 0 3 18 5 40 2 22 7 60 10 85 23 191 27 770 5 770 -3 0 -6
17 -8 37 -3 52 -15 123 -22 143 -1 3 -2 9 -1 13 3 19 -63 265 -99 371 -66 191
-210 490 -242 504 -5 2 -8 9 -8 15 0 16 -145 225 -205 294 -137 158 -318 336
-399 393 -12 8 -25 19 -31 25 -5 6 -28 24 -50 40 -22 16 -42 31 -45 35 -8 9
-201 136 -245 161 -95 54 -230 121 -316 159 -52 22 -103 45 -114 49 -35 16
-84 33 -89 32 -3 0 -26 8 -51 19 -25 11 -45 17 -45 15 0 -3 -17 2 -37 10 -40
15 -187 54 -237 62 -16 3 -39 8 -50 13 -12 4 -38 7 -59 6 -20 0 -37 2 -37 5 0
4 -33 10 -72 14 -40 4 -86 9 -103 11 -16 2 -67 4 -112 6 -46 1 -83 4 -83 7 0
7 -85 5 -105 -3 -8 -3 -15 -1 -15 4 0 5 -13 5 -30 0 -18 -5 -32 -5 -35 1 -4 5
-13 5 -24 -1 -10 -5 -21 -7 -24 -3 -9 8 -162 7 -175 -1 -6 -3 -13 -2 -17 3 -4
7 -15 7 -31 1 -14 -6 -23 -7 -21 -2 3 4 -16 6 -41 4 -59 -3 -56 -3 -119 -2
-28 1 -57 -1 -62 -5 -6 -3 -11 0 -11 7 0 10 -2 10 -8 1 -5 -8 -13 -9 -22 -3
-9 5 -19 5 -26 -1 -7 -6 -15 -6 -18 -1 -5 8 -110 7 -124 -2 -5 -3 -14 -1 -22
4 -8 5 -22 4 -33 -2 -14 -7 -17 -7 -13 1 5 8 0 8 -18 1 -14 -5 -27 -6 -30 -2
-5 8 -132 6 -153 -3 -7 -2 -13 1 -13 8 0 9 -2 9 -8 0 -5 -7 -13 -9 -21 -3 -8
4 -25 4 -38 -1 -13 -5 -22 -5 -19 -1 5 8 -68 6 -90 -2 -7 -3 -16 -1 -19 4 -3
6 -16 5 -31 0 -14 -6 -23 -6 -20 -2 5 8 -68 6 -91 -2 -7 -3 -13 -2 -13 2 0 8
-123 7 -145 -2 -8 -3 -17 -1 -20 4 -3 6 -16 5 -31 0 -14 -6 -23 -7 -21 -2 3 4
-16 6 -41 4 -59 -3 -56 -3 -119 -2 -28 1 -57 -1 -62 -5 -6 -3 -11 0 -11 7 0
10 -2 10 -8 1 -5 -8 -13 -9 -22 -3 -9 5 -19 5 -26 -1 -7 -6 -15 -6 -18 -1 -5
8 -110 7 -124 -2 -5 -3 -14 -1 -22 4 -8 5 -22 4 -33 -2 -14 -7 -17 -7 -13 1 5
8 0 8 -18 1 -14 -5 -27 -6 -30 -2 -5 8 -132 6 -153 -3 -7 -2 -13 1 -13 8 0 9
-2 9 -8 0 -5 -7 -13 -9 -21 -3 -8 4 -25 4 -38 -1 -13 -5 -22 -5 -19 -1 5 8
-68 6 -90 -2 -7 -3 -16 -1 -19 4 -3 6 -16 5 -31 0 -14 -6 -23 -7 -21 -2 3 4
-16 6 -41 4 -59 -3 -56 -3 -119 -2 -28 1 -57 -1 -62 -5 -6 -3 -11 0 -11 7 0
10 -2 10 -8 1 -5 -8 -13 -9 -22 -3 -9 5 -19 5 -26 -1 -7 -6 -15 -6 -18 -1 -5
8 -110 7 -124 -2 -5 -3 -14 -1 -22 4 -8 5 -22 4 -33 -2 -14 -7 -17 -7 -13 1 5
8 0 8 -18 1 -14 -5 -27 -6 -30 -2 -5 8 -132 6 -153 -3 -7 -2 -13 1 -13 8 0 9
-2 9 -8 0 -5 -7 -13 -9 -21 -3 -8 4 -25 4 -38 -1 -13 -5 -22 -5 -19 -1 5 8
-68 6 -90 -2 -7 -3 -16 -1 -19 4 -3 6 -16 5 -31 0 -14 -6 -23 -7 -21 -2 3 4
-16 6 -41 4 -59 -3 -56 -3 -119 -2 -28 1 -57 -1 -62 -5 -6 -3 -11 0 -11 7 0
10 -2 10 -8 1 -5 -8 -13 -9 -22 -3 -9 5 -19 5 -26 -1 -7 -6 -15 -6 -18 -1 -5
8 -110 7 -124 -2 -5 -3 -14 -1 -22 4 -8 5 -22 4 -33 -2 -14 -7 -17 -7 -13 1 5
8 0 8 -18 1 -14 -5 -27 -6 -30 -2 -5 8 -132 6 -153 -3 -7 -2 -13 1 -13 8 0 9
-2 9 -8 0 -5 -7 -13 -9 -21 -3 -8 4 -25 4 -38 -1 -13 -5 -22 -5 -19 -1 5 8
-68 6 -90 -2 -7 -3 -16 -1 -19 4 -3 6 -16 5 -31 0 -14 -6 -23 -7 -21 -2 3 4
-16 6 -41 4 -59 -3 -56 -3 -119 -2 -28 1 -57 -1 -62 -5 -6 -3 -11 0 -11 7 0
10 -2 10 -8 1 -5 -8 -13 -9 -22 -3 -9 5 -19 5 -26 -1 -7 -6 -15 -6 -18 -1 -5
9 -111 6 -126 -3 -6 -4 -10 -2 -10 4 0 6 -11 6 -30 1 -18 -5 -32 -5 -35 1 -4
5 -13 5 -24 -1 -10 -5 -21 -7 -25 -3 -7 8 -132 6 -145 -1 -5 -4 -12 0 -14 6
-4 10 -6 10 -6 0 -1 -8 -6 -10 -13 -6 -14 9 -114 8 -128 -1 -6 -3 -10 0 -10 7
0 10 -2 10 -8 1 -5 -8 -13 -9 -22 -3 -9 5 -19 5 -26 -1 -7 -6 -15 -6 -18 -1
-5 8 -110 7 -124 -2 -5 -3 -14 -1 -22 4 -8 5 -22 4 -33 -2 -14 -7 -17 -7 -13
1 5 8 0 8 -18 1 -14 -5 -27 -6 -30 -2 -5 8 -132 6 -153 -3 -7 -2 -13 1 -13 8
0 9 -2 9 -8 0 -5 -7 -13 -9 -21 -3 -8 4 -25 4 -38 -1 -13 -5 -22 -5 -19 -1 5
8 -68 6 -90 -2 -7 -3 -16 -1 -19 4 -3 6 -16 5 -31 0 -14 -6 -23 -7 -21 -2 3 4
-16 6 -41 4 -59 -3 -56 -3 -119 -2 -28 1 -57 -1 -62 -5 -6 -3 -11 0 -11 7 0
10 -2 10 -8 1 -5 -8 -13 -9 -22 -3 -9 5 -19 5 -26 -1 -7 -6 -15 -6 -18 -1 -5
8 -110 7 -124 -2 -5 -3 -14 -1 -22 4 -8 5 -22 4 -33 -2 -14 -7 -17 -7 -13 1 5
8 0 8 -18 1 -14 -5 -27 -6 -30 -2 -5 8 -132 6 -153 -3 -7 -2 -13 1 -13 8 0 9
-2 9 -8 0 -5 -7 -13 -9 -21 -3 -8 4 -25 4 -38 -1 -13 -5 -22 -5 -19 -1 5 8
-68 6 -90 -2 -7 -3 -16 -1 -19 4 -3 6 -16 5 -31 0 -14 -6 -23 -7 -21 -2 3 4
-16 6 -41 4 -59 -3 -56 -3 -119 -2 -28 1 -57 -1 -62 -5 -6 -3 -11 0 -11 7 0
10 -2 10 -8 1 -5 -8 -13 -9 -22 -3 -9 5 -19 5 -26 -1 -7 -6 -15 -6 -18 -1 -5
9 -111 6 -126 -3 -6 -4 -10 -2 -10 4 0 6 -11 6 -30 1 -18 -5 -32 -5 -35 1 -4
5 -13 5 -24 -1 -10 -5 -21 -7 -24 -4 -10 11 -102 9 -136 -3z"/>
</g>
</svg>
