<svg width="auto" height="auto" viewBox="0 0 57 25" fill="none" xmlns="http://www.w3.org/2000/svg">
<path d="M17.9487 14.2217L16.5734 17.3093C16.4807 17.5174 16.6855 17.7338 16.8986 17.6529L21.9219 15.7451C24.6995 14.6901 28.3056 11.0512 28.3056 9.00033C28.3056 7.15649 24.7306 3.2162 22.0109 2.32141L14.9965 0.0135976C14.7657 -0.0623242 14.5687 0.195349 14.7025 0.398013L16.1268 2.55513C16.2862 2.79648 16.1317 3.12066 15.8438 3.14914L7.60302 3.96452C7.36611 3.98797 7.2864 4.29346 7.48169 4.42956L9.72523 5.99309C9.94834 6.14858 9.94376 6.48015 9.71643 6.62942L6.34698 8.84184C6.16706 8.95998 5.95449 9.01851 5.73941 9.00912L0.267985 8.77036C-0.00226772 8.75857 -0.104091 9.11902 0.132424 9.25024L6.1988 12.616C6.42547 12.7418 6.6914 12.777 6.94303 12.7147L9.629 12.049C9.97782 11.9626 10.3465 12.065 10.6006 12.319L12.646 14.3634C12.9125 14.6298 13.3038 14.7286 13.6649 14.6205L17.3334 13.5225C17.7532 13.3969 18.127 13.8216 17.9487 14.2217Z" fill="currentColor"/>
<path d="M26.8203 17.3502V23.8622C26.8203 24.0801 26.997 24.2567 27.215 24.2567H33.6438C33.8617 24.2567 34.0384 24.0801 34.0384 23.8622V17.3513C34.0384 17.1334 34.2151 16.9568 34.4331 16.9568L42.6288 16.9568C42.7647 16.9568 42.8911 17.0267 42.9632 17.1419L47.3317 24.1134C47.4039 24.2285 47.5302 24.2984 47.6662 24.2984H55.6437C55.9577 24.2984 56.1459 23.9496 55.9734 23.6873L50.4834 15.3392C50.482 15.337 50.4812 15.3344 50.4812 15.3318C50.4812 15.3244 50.4872 15.3184 50.4946 15.3183C53.1107 15.2969 55.5598 12.8886 55.5598 8.60041C55.5598 3.83876 51.3486 1.21128 48.166 1.211L48.1643 1.21048V1.19664C48.1643 1.19388 48.162 1.19165 48.1593 1.19165H27.215C27.0538 1.19165 26.9152 1.28817 26.8539 1.42653C27.137 3.89451 29.4344 6.57314 34.4564 6.57314L44.7565 6.5736C45.8848 6.5736 47.3775 7.50521 47.3775 9.19332C47.3775 10.7199 46.5012 11.5744 45.5694 11.5749L34.4564 11.5749V11.5789C29.0064 11.5789 26.7651 14.7336 26.825 17.3502H26.8203Z" fill="currentColor"/>
</svg>
